<svg id="visual" viewBox="0 0 900 600" width="100%" height="100%" xmlns="http://www.w3.org/2000/svg" xmlns:xlink="http://www.w3.org/1999/xlink" version="1.1"><path d="M0 460L21.5 460.8C43 461.7 86 463.3 128.8 455.8C171.7 448.3 214.3 431.7 257.2 424.5C300 417.3 343 419.7 385.8 426.8C428.7 434 471.3 446 514.2 444.2C557 442.3 600 426.7 642.8 414.5C685.7 402.3 728.3 393.7 771.2 388.7C814 383.7 857 382.3 878.5 381.7L900 381L900 601L878.5 601C857 601 814 601 771.2 601C728.3 601 685.7 601 642.8 601C600 601 557 601 514.2 601C471.3 601 428.7 601 385.8 601C343 601 300 601 257.2 601C214.3 601 171.7 601 128.8 601C86 601 43 601 21.5 601L0 601Z" fill="#2039c2"></path><path d="M0 443L21.5 452.3C43 461.7 86 480.3 128.8 491C171.7 501.7 214.3 504.3 257.2 506C300 507.7 343 508.3 385.8 508.7C428.7 509 471.3 509 514.2 503.3C557 497.7 600 486.3 642.8 474.5C685.7 462.7 728.3 450.3 771.2 453C814 455.7 857 473.3 878.5 482.2L900 491L900 601L878.5 601C857 601 814 601 771.2 601C728.3 601 685.7 601 642.8 601C600 601 557 601 514.2 601C471.3 601 428.7 601 385.8 601C343 601 300 601 257.2 601C214.3 601 171.7 601 128.8 601C86 601 43 601 21.5 601L0 601Z" fill="#005cb5"></path><path d="M0 504L21.5 502.5C43 501 86 498 128.8 496.3C171.7 494.7 214.3 494.3 257.2 503.5C300 512.7 343 531.3 385.8 533.7C428.7 536 471.3 522 514.2 519.7C557 517.3 600 526.7 642.8 534C685.7 541.3 728.3 546.7 771.2 542.8C814 539 857 526 878.5 519.5L900 513L900 601L878.5 601C857 601 814 601 771.2 601C728.3 601 685.7 601 642.8 601C600 601 557 601 514.2 601C471.3 601 428.7 601 385.8 601C343 601 300 601 257.2 601C214.3 601 171.7 601 128.8 601C86 601 43 601 21.5 601L0 601Z" fill="#1f6d94"></path></svg>